<?xml version="1.0" encoding="utf-8"?>
<!-- Generator: Adobe Illustrator 27.0.0, SVG Export Plug-In . SVG Version: 6.00 Build 0)  -->
<svg version="1.1" id="Layer_1" xmlns="http://www.w3.org/2000/svg" xmlns:xlink="http://www.w3.org/1999/xlink" x="0px" y="0px"
	 viewBox="0 0 148 87" style="enable-background:new 0 0 148 87;" xml:space="preserve">
<style type="text/css">
	.st0{fill:#F7931E;}
</style>
<g>
	<path class="st0" d="M64.6,85.1c-1.7-0.3-2.8-1.4-3.9-2.5c-2.4-2.4-4.9-4.8-7.3-7.2c-2.9-2.9-5.2-6.3-6.7-10.1
		c-0.7-1.8-1.1-3.6-0.8-5.6c-0.3,0.4-0.6,0.8-1,1.1c-0.7-1-1.3-2-1.7-3.2c-1.2-3.2-1.4-6.4-0.5-9.7c0.5-1.7,1.6-3,3.1-4
		c0.3-0.2,0.5-0.4,0.8-0.6c0,0-0.1-0.1-0.1-0.1c-0.6,0.1-1.2,0.2-1.8,0.4c-0.1-1.2-0.2-2.4-0.1-3.5c0-1.5,0.4-3,1.3-4.3
		c0.6-1,1.4-1.9,2-2.9c1.2-1.9,1.8-4.1,2.3-6.3c0.1-0.6,0.3-1.2,0.4-1.9c0-0.1,0.1-0.2,0.2-0.3c0,0.1,0.1,0.2,0.1,0.3
		c-0.3,2.1-0.5,4.1-0.8,6.2c0,0.3-0.1,0.6-0.1,0.9c1.8,0.5,3.5,0.9,5.4,1.4c-0.8-1.2-1.6-2.4-2.5-3.6c0.6,0.5,1.1,1,1.6,1.5
		c0,0,0.1,0,0.1,0c0-0.1-0.1-0.3-0.1-0.4c-0.5-1-1-2-1.5-3c-0.1-0.1-0.1-0.2-0.1-0.4c0,0,0.1,0,0.1-0.1c0.1,0.1,0.2,0.2,0.2,0.3
		c0.4,0.7,0.9,1.3,1.3,2c0.1,0.1,0.2,0.1,0.3,0.2c0-0.1,0.1-0.2,0.1-0.3c-0.2-1.2-0.4-2.3-0.6-3.5c0-0.2-0.1-0.4,0.2-0.4
		c0.2,0.5,0.4,0.9,0.6,1.4c0.9,2,2.4,3.6,4.1,5c0.7,0.6,1.3,1.1,2,1.7c1.4,1.1,3,1.6,4.7,1.1c0.7-0.2,1.3-0.6,2.1-0.9
		c0.2,0.1,0.1,0.2,0,0.4c-0.4,0.5-0.8,1.1-1.2,1.6c0,0-0.1,0.1-0.1,0.2c0.3,0.1,0.5,0.1,0.9,0.2c-0.8,0.4-1.4,0.8-2.1,1.1
		c-0.3,0.1-0.7,0.1-1,0c-1.7-0.4-3.4-0.9-5.1-1.4c-0.1,0-0.2-0.1-0.4-0.1c-0.1,0.2-0.1,0.3-0.2,0.5c4.2,1.9,8.3,3.7,12.4,5.6
		c0,0.1,0,0.1-0.1,0.2c-0.4-0.1-0.8-0.1-1.1-0.2c0,0,0,0.1,0,0.1c0.8,0.4,1.5,0.8,2.3,1.2c1.6,0.7,3.4,1.2,5.2,1.2
		c0.2,0,0.4,0,0.5-0.1c0.7-0.8,1.4-1.6,2.2-2.4c0.4-0.5,0.6-1,0.5-1.7c-0.3-1.9-0.9-3.7-2.2-5.1c-0.6-0.6-1.2-1-1.9-1.4
		c-1.5-1-3-1.9-4.5-2.8c-0.2-0.1-0.3-0.2-0.5-0.2c-0.5-0.3-1-0.2-1.4,0.2c-0.2,0.2-0.3,0.3-0.5,0.5c-0.3-0.7-0.5-1.5-0.8-2.2
		c-1,0.8-2,1-3.2,0.7c-0.7-0.2-1.5-0.5-2.2-0.7c-0.5-0.2-1-0.4-1.6-0.6c-0.2,0.4-0.3,0.7-0.5,1c-0.7-1.2-0.2-2.5,1.2-3.3
		c0.1,0.5,0.2,1.1,0.7,1.3c0.5,0.2,1,0.3,1.5,0.4c0.5,0,1.1-0.1,1.7-0.1c-0.5-0.6-1-1.2-1.5-1.8c0,0-0.1-0.1-0.1-0.1
		c0-0.1,0-0.2-0.1-0.3c0.1,0,0.2,0,0.3,0c0.6,0.3,1.1,0.7,1.7,1c0.5,0.3,0.9,0.7,1.5,0.5c0.8-0.3,1.4-0.6,1.9-1.4
		c0,0,0.1-0.1,0.1-0.1c0.7,0.2,0.7,0.3,0.6,1c-0.1,0.6-0.2,1.3-0.3,1.9c0,0.3,0.1,0.4,0.3,0.4c3.1,0.9,5.9,2.4,8.5,4.2
		c1.7,1.2,3.4,2.5,5.2,3.7c0.1,0.1,0.2,0.1,0.3,0.2c-0.3-0.6-2.7-3.1-4-4.1c-1.5-1.2-2.9-2.4-4.5-3.7c1,0.3,1.8,0.6,2.5,1.2
		c0.8,0.7,1.5,1.4,2.3,2.1c1.7,1.8,3.7,3.2,5.9,4.3c1.4,0.7,2.9,1.3,4.5,1.7c2.4,0.7,4.1,2.4,5.1,4.7c0.4,0.9,0.7,1.8,1,2.8
		c0.3-0.2,0.7-0.5,1.1-0.7c2.9-1.8,5.9-2,8.9-0.5c3.8,1.9,5.8,5.1,6.4,9.2c0.1,0.4,0.1,0.9,0.2,1.4c0,0.6,0,1.3,0,1.9
		c0,0.1-0.1,0.2-0.1,0.3c-0.2,3.2-1.4,6-3.4,8.5c-1.7,2.1-3.8,3.7-6.4,4.5c-2,0.6-4,0.6-6,0.3c-2.4-0.4-4.4-1.5-5.9-3.5
		c-0.5-0.6-0.8-1.3-1.3-2c-0.8,0.6-1.7,1.1-2.5,1.7c-0.9,0.8-1.7,1.7-2.5,2.5c-1.9,2-3.7,4-5.7,6c-2.3,2.2-4.8,4-7.7,5.4
		c-1.1,0.5-2.3,0.9-3.2,1.8c-1.1,1.1-2.4,1.9-4,2.2C65.2,85.1,64.9,85.1,64.6,85.1z M56.5,37c0-0.1-0.1-0.1-0.1-0.1
		c-1.4-1.2-2.9-2-4.7-2.2c-1.3-0.2-2.7-0.1-3.8,0.7c-0.2,0.1-0.3,0.2-0.4,0.3c0,0,0,0.1,0,0.1c0.8,0,1.6,0,2.4,0
		c-0.9,1.3-1.9,2.5-2.8,3.8c0.4,0,0.8,0.1,1.1,0.1c0.4,0.1,0.9,0.1,1.1,0.4c0.8,0.9,1.8,1.1,2.9,0.9c0.7-0.1,1.3-0.1,2-0.1
		c-0.1,0.2-0.3,0.3-0.4,0.4c-2.2,1.2-4,2.8-5.4,4.8c-1,1.4-1.8,3-2.6,4.6c-0.4,0.9-0.2,2.1,0.6,2.7c0.1-0.1,0.1-0.2,0.2-0.3
		c0.5-0.7,0.9-1.5,1.5-2.2c0.8-1,1.7-0.9,2.4,0c0.2,0.3,0.4,0.5,0.6,0.8c0.4,0.7,0.8,1.5,1.1,2.2c0.2,0.5,0.6,0.8,1.1,0.8
		c0.3,0,0.6,0.1,0.9,0.1c1.1,0.1,2.2-0.1,3.3-0.5c-0.7-1.1-1.4-2.2-2-3.2c0,0,0.1-0.1,0.1-0.1c0.9,0.7,1.8,1.6,2.7,2.4
		c0-0.2-0.1-0.3-0.2-0.4c-0.6-1.1-1.2-2.3-1.8-3.4c-0.4-0.8-0.6-1.6-0.5-2.5c0.4,0.7,0.9,1.3,1.3,1.9c0.8,1.3,1.7,2.5,2.9,3.5
		c0.9,0.7,1.2,0.7,1.9-0.3c1-1.5,1.3-3.2,1.7-4.9c0-0.1,0.1-0.2,0.1-0.3c0.1,0.1,0.2,0.2,0.2,0.3c0.1,0.6,0.3,1.1,0.4,1.7
		c0.1,0.3,0.2,0.3,0.5,0.3c0.2-1.5,0.4-2.9,0.6-4.5c0.4,0.3,0.7,0.6,0.9,0.9c0.7,0.8,1.2,1.7,1.6,2.7c0.3,0.7,0.8,1.2,1.5,1.6
		c0.7,0.4,1.5,0.6,2.4,0.5c-0.1-0.3-0.1-0.5-0.2-0.7c-0.6-1.7-1.5-3.3-2.5-4.8c-1.9-2.6-4.4-4.5-7.4-5.8c-1.4-0.6-2.8-1.1-4.4-1.2
		c-1.1,0-2.2,0.1-3.2,0.5c0-0.1,0.1-0.3,0.2-0.3C54.9,37.8,55.7,37.4,56.5,37z M90.3,60.7c0.1-0.1,0.1-0.1,0.2-0.1
		c0.6-0.9,1.3-1.8,1.8-2.8c1.1-2.2,1.8-4.5,2.1-6.9c0.3-2.2,0.2-4.3-0.5-6.4c-0.7-2-1.9-3.6-3.8-4.5c-2.9-1.2-5.6-0.8-8,1.1
		c-2.3,1.8-4.1,4-5.4,6.6c-2.1,4.2-2.1,8.4,0.3,12.5c2.1,3.6,6.5,4.7,10.1,2.6c1.2-0.7,2.2-1.7,3.1-2.8c0.1-0.2,0.3-0.3,0.4-0.4
		c0,0,0,0,0.1,0C90.6,59.9,90.5,60.3,90.3,60.7z M110.3,53c-0.6-2.4-1.5-4.6-3.2-6.3c-1.2-1.3-2.7-2-4.5-1.9c-0.7,0-1.3,0.3-1.9,0.7
		c0.2,0,0.5,0,0.8,0c-1,0.5-1.9,0.9-2.9,1.4c-0.4,0.2-0.7,0.4-0.7,0.8c0,0.9,0.1,1.8,0.2,2.8c0.7-0.1,1.3-0.3,1.9-0.3
		c1.3-0.1,2.4,0.3,3.5,0.9c1.4,0.7,2.3,1.8,2.8,3.3c0.4,1.5,0.4,3.1,0.1,4.6c-0.3,1.1-0.6,2.1-0.9,3.2c0,0.1,0,0.3-0.1,0.4
		c0.3-0.2,0.4-0.4,0.6-0.7c0.2-0.2,0.3-0.4,0.5-0.7c0.2-0.2,0.3-0.5,0.5-0.7c0.2-0.2,0.3-0.4,0.5-0.6c0,0,0.1,0.1,0.1,0.1
		c-0.6,1.5-1.2,3-1.8,4.5c0,0,0.1,0.1,0.1,0.1c0.1-0.1,0.2-0.2,0.2-0.3c0.4-0.6,0.9-1.1,1.3-1.7c0-0.1,0.2-0.1,0.2-0.1
		c0,0.1,0,0.2,0,0.2c0,0.1-0.1,0.2-0.2,0.3c-0.7,1.2-1.4,2.3-2.2,3.5c0,0.1-0.1,0.1-0.1,0.3c5.3-3.6,6.7-10.7,5.4-14.5
		C110.5,52.4,110.4,52.6,110.3,53z M55.5,72c-0.6,2.1,0.3,3.5,1.9,4.4c-0.1-1.1-0.3-2.2-0.4-3.2c-0.1-0.6-0.1-1.3-0.5-1.8
		c-0.8-1.1-1.6-2.3-2.4-3.4c-0.2-0.2-0.3-0.4-0.5-0.8c0.4,0.1,0.6,0.2,0.9,0.2c0,0.9,0.5,1.6,1.6,2.2c0-0.1,0-0.2,0-0.3
		c-0.4-1.7-0.8-3.4-1.2-5.2c-0.2-0.8,0-0.7-0.9-0.7c-1.3,0-1.7,0.5-1.2,1.7c0.1,0.3,0.2,0.6,0.3,0.9c0,0-0.1,0-0.1,0
		c-0.4-1-0.9-2.1-1.3-3c0.4,0.1,0.8,0.3,1.2,0.3c0.6,0,1.1-0.1,1.7-0.1c0.8-0.1,1.6-0.4,2.3-1c0.2-0.2,0.4-0.3,0.7-0.4
		c-0.1,0.7-0.2,1.3-0.3,1.9c0.3,0.1,0.6,0.1,0.8,0.2c0.2-0.5,0.3-1,0.5-1.4c0.4-0.9,1.2-1.4,2.1-1.8c1.1-0.5,1.4-2.1,0.5-2.9
		c-0.7-0.6-1.5-0.9-2.3-1c-0.6-0.1-1.1,0.2-1.4,0.7c0.8,0.3,1.7,0.5,2.5,0.8c-0.9,0.3-1.8,0.7-2.6,1.2c-0.8,0.6-1.4,1.3-1.9,2.2
		c-2.7-0.8-5.3-1.8-8.2-1.4c0.2,0.6,0.3,1.2,0.5,1.8c0.3,0.8,0.6,1.6,0.9,2.4c0.2,0.5,0.5,0.6,1,0.3c0.5-0.2,0.9-0.4,1.3-0.7
		c0.2-0.1,0.3-0.1,0.4,0.1c-0.6,0.7-1.2,1.4-1.7,2.1c1.7,2.1,3.4,4.3,5.1,6.4C54.9,72.4,55.2,72.3,55.5,72z M73.1,70
		c0.3-0.6,0.6-1,0.9-1.5c0-0.1,0-0.2,0-0.3c-0.1,0-0.2,0-0.3,0.1c-0.3,0.2-0.6,0.4-0.9,0.5c-0.7,0.4-1.4,0.9-2.1,1.4
		c-0.2-0.5-0.4-0.9-0.7-1.3c2-1,4-2,6-3c0.6-0.3,1.3-0.6,1.9-0.9c0.7-0.4,0.8-0.8,0.3-1.4c-0.1-0.2-0.3-0.3-0.4-0.4
		c-0.4-0.3-0.8-0.4-1.2,0c-0.8,0.8-1.8,1-2.8,0.9c-1.6-0.1-3.1-0.2-4.7,0.1c-2.2,0.4-4.3,1-6.1,2.3c-0.7,0.5-1.4,0.6-2.1,0.2
		c-0.1,0-0.2-0.1-0.3-0.1c0.2,0.4,0.4,0.8,0.6,1.2c0.2,0.6,0.4,1.3,0.7,1.9c0.3,0.7,0.7,1.4,1.4,1.8c0.2-0.3,0.4-0.6,0.5-1
		c0.9,0.2,1.5,0.2,2.4-0.1c0.9-0.3,1.9-0.7,2.8-1.1c-0.3-0.4-0.5-0.9-0.8-1.3c0.1-0.1,0.2-0.1,0.3-0.2c0.2,0.3,0.5,0.6,0.7,0.9
		c0.6,0.9,1.3,1.7,1.9,2.6c0.4,0.5,0.8,0.6,1.2,0.3c1.2-0.7,2.3-1.5,3.4-2.3c-0.1-0.1-0.1-0.2-0.1-0.2C74.7,69.4,73.9,69.7,73.1,70z
		 M60,64.1c0.9,1.2,1.8,1.3,2.9,0.3c0,0,0.1-0.1,0.1-0.1c0.7-0.7,1.5-1.5,2.2-2.2c0.4-0.4,0.9-0.9,1.4-1.3c0,0.6-0.1,1-0.1,1.5
		c0,0.3,0.1,0.6,0.4,0.8c0.8,0.5,2.1,0,2.2-1c0.1-0.5,0.1-1.1,0-1.6c-0.1-1.6-0.5-3-1.5-4.3c-0.6-0.8-1.3-1.4-2.3-1.8
		c0.1,0.2,0.1,0.2,0.1,0.3c0.4,0.9,0.9,1.7,1.3,2.6c0.1,0.1,0,0.2,0,0.4c-0.5-0.7-1-1.3-1.5-1.9c-0.5-0.6-1.1-1.1-1.9-1.4
		c0,0.1,0.1,0.2,0.1,0.2c0.7,1,1.4,1.9,1.8,3.1c0.3,0.8,0.4,1.5,0,2.3c-0.6,1.2-1.7,1.8-2.8,2.4c0.3-0.7,0.7-1.3,1-2c0,0,0,0-0.1,0
		C62.5,61.3,61.3,62.7,60,64.1z M91.7,65.3c0.7,0.8,1.4,1.5,2,2.3c0.2,0.3,0.4,0.5,0.6,0.8c0.2,0.4,0.4,0.7,0.9,0.7
		c0.9,0.1,1.8-0.5,1.9-1.4c0.1-0.8,0.1-1.5,0.1-2.3c0-0.2-0.2-0.5-0.4-0.7c-0.6-0.5-1.3-0.9-1.9-1.4c-0.1-0.1-0.2-0.1-0.3,0
		C93.7,63.9,92.7,64.6,91.7,65.3z M97.1,54.5c0,0.4,0,0.8,0,1.2c-0.1,1.2-0.6,2.2-1.2,3.1c-0.4,0.6-0.1,1.3,0.6,1.3
		c0.6,0.1,1.3,0.1,1.9,0c0.9-0.1,1.7-1.1,1.4-2c-0.3,0.3-0.6,0.5-1,0.8c0-0.7,0-1.2,0-1.9c-0.5,0.7-0.9,1.3-1.3,1.9
		c-0.4-0.2-0.4-0.2-0.3-0.6c0.5-1.2,0.6-2.5,0.3-3.8C97.4,54.5,97.3,54.5,97.1,54.5z M65.3,73.3c1.7,0.9,4.5,0.1,6.1-1.3
		c-0.4-0.4-0.9-0.7-1.3-1.1c-0.2-0.2-0.3-0.1-0.5,0c-0.5,0.3-1.1,0.6-1.7,0.9C67.1,72.3,66.2,72.8,65.3,73.3z M71.3,75.9
		c3.4-0.3,9.1-3.3,10.4-5.4C78.5,72.6,75,74.5,71.3,75.9z M73.4,56.1c0.9-2-0.1-7.2-1.6-8.6C73.3,51.2,73.5,52.4,73.4,56.1z"/>
	<path class="st0" d="M74.8,5.8c0.2,0.2,0.3,0.3,0.3,0.4C75.6,6,76,5.7,76.5,5.5c0,0,0.1,0.1,0.1,0.1c0,0.1-0.1,0.2-0.1,0.2
		c-0.8,1.4-1.7,2.9-2.5,4.3c-0.5,0.8-1.2,1.3-2.1,1.4c-2,0.2-4.1,0.3-6.1,0c-1-0.2-2-0.5-3-1c-0.1,0-0.1-0.1-0.2-0.1
		c0.3,0.4,0.7,0.7,1,1.1c0.1,0.1,0.1,0.2,0.2,0.3c-0.1,0-0.3,0-0.4,0c-1.3-0.4-2.6-0.9-3.9-1.3c0.5,0.9,0.9,1.7,1.3,2.5
		c-0.5,0-1,0.1-1.6,0.1c0.7,0.8,1.3,1.5,2,2.3c-0.7,0.5-1.5,0.5-2.3,0.3c-0.2,0-0.4-0.1-0.6-0.1c-0.7-0.2-1,0-1.3,0.6
		c-0.5,1.3-1,2.5-1.5,3.8c0,0.1-0.1,0.2-0.1,0.3c-0.1-0.2-0.2-0.4-0.3-0.6c0,0,0,0-0.1,0c0,0.4-0.1,0.7-0.1,1.1c0,0,0,0-0.1,0
		c-0.2-0.6-0.4-1.1-0.6-1.7c-0.3-1-0.7-1.9-1-2.9c-0.5-1.3-1.4-2.1-2.8-2.1c0,0,0,0-0.1-0.1c0-0.3,0-0.6,0-0.9
		c0.1-1.9,0.3-3.8,0.4-5.8c0.1-1.5,0.7-2.7,1.7-3.8C53,3,53.4,2.5,53.8,2c0.3-0.3,0.6-0.5,1-0.6c3.4-0.4,6.8-0.5,10.2,0.1
		c0.4,0.1,0.8,0.2,1.2,0.3c-0.2,0-0.3,0-0.5,0c-1,0-1.9,0-2.9,0c-0.3,0-0.4,0-0.3,0.4c2.5,0.2,5.1,0.4,7.7,0.5
		c2.6,0.1,5.1,0.1,7.7,0.1C76.8,3.9,75.8,4.9,74.8,5.8z"/>
	<path class="st0" d="M68.2,19.2c-0.1,1.3-1.1,2.3-2.4,2.3c-0.4,0-0.7,0.1-1,0.3c-0.6,0.5-1.3,0.6-2,0.3c-0.6-0.2-1.2-0.5-1.7-0.8
		c-0.3-0.2-0.4-0.4-0.3-0.7c0.1-0.2,0-0.4-0.1-0.5c-0.4-0.3-0.8-0.5-1.2-0.8c-0.1-0.1-0.2-0.3-0.3-0.4c0,0,0.1-0.1,0.1-0.1
		c1,0.1,2,0.1,3,0.3c0.8,0.2,1.7,0.4,2.5,0.7c1.2,0.4,2.2,0.2,3.2-0.6C68,19.3,68.1,19.3,68.2,19.2z"/>
	<path class="st0" d="M69.9,19.2c0,0.3-0.1,0.6-0.1,1c0.9-0.1,1.8-0.3,2.7-0.4c-0.3,1.2-1,1.9-2,2.3c-0.1,0.1-0.3,0.1-0.4,0.1
		c-0.6,0.2-0.6,0.2-0.8-0.4c-0.2-0.6-0.1-1.1,0.1-1.7C69.4,19.7,69.6,19.4,69.9,19.2C69.8,19.1,69.8,19.1,69.9,19.2z"/>
	<path class="st0" d="M67.2,31.8c-1.1,0-2.1,0-3.1,0c-0.1,0-0.2,0-0.3,0c0.1-0.7,0.8-0.5,1.2-0.9c-0.1-0.1-0.2-0.3-0.4-0.5
		c1,0,1.9,0,2.8,0C67.3,30.9,67.2,31.3,67.2,31.8z"/>
	<path class="st0" d="M53.3,17.2c-0.6,0.3-1.3,0.7-1.9,1c-0.4-0.5-0.3-1,0.2-1.3c0.3-0.2,0.6-0.3,0.8-0.5c-0.6-0.7-1.1-0.7-2,0
		c-0.2-0.2-0.3-0.3,0-0.5c0.1-0.1,0.2-0.2,0.3-0.3c0.5-0.5,1-0.6,1.5-0.1C52.9,15.9,53.2,16.5,53.3,17.2z"/>
	<path class="st0" d="M53.3,21.9c-0.4-0.3-0.7-0.6-1-0.9c-0.2-0.2-0.2-0.5,0.1-0.6c0.2-0.1,0.3-0.1,0.5-0.1c0.5-0.1,0.8,0.3,0.7,0.8
		C53.6,21.3,53.5,21.6,53.3,21.9z"/>
	<path class="st0" d="M80.5,58.7c0.2-0.1,0.4-0.2,0.7-0.3c-0.1-0.1-0.2-0.2-0.3-0.2c-2-0.6-3.1-2-3.5-3.9c-0.7-3.2-0.1-6.1,2.2-8.6
		c1-1.1,2.1-1.9,3.5-2.4c2-0.8,4-0.1,5.2,1.8c0.4,0.5,0.6,1.1,1,1.6c0,0,0.1,0,0.1,0c0-0.1,0.1-0.2,0-0.3c-0.2-0.6-0.4-1.2-0.6-1.9
		c0.2,0.1,0.4,0.2,0.6,0.3c1,0.8,1.6,1.9,1.9,3.1c0.5,2.5,0,4.9-1.2,7.1c-0.9,1.7-2.1,3-3.8,4C84.3,60.1,82.3,60,80.5,58.7z
		 M83,45.5c-1.8,0.2-3.8,2.4-3.8,3.9c0.2-0.2,0.3-0.4,0.5-0.6c0.9-1.2,2-2.1,3.5-2.6c1.5-0.4,2.7,0.1,3.3,1.5
		c0.2,0.4,0.3,0.9,0.4,1.3c0.1,0.2,0.1,0.4,0.2,0.7c0,0,0.1,0,0.1,0c0-0.5,0.1-1.1,0-1.6c-0.4-1.9-2.1-2.9-4-2.2
		c-0.4,0.1-0.8,0.3-1.3,0.5C82.4,46,82.7,45.8,83,45.5z M83.4,55.9c-1.4,0.4-2.8,0.5-4.1-0.4C80.3,57.1,81.9,57.3,83.4,55.9z"/>
</g>
</svg>
